<?xml version="1.0" encoding="UTF-8" standalone="no"?>
<!DOCTYPE svg PUBLIC "-//W3C//DTD SVG 1.1//EN"
 "http://www.w3.org/Graphics/SVG/1.1/DTD/svg11.dtd">
<!-- Generated by graphviz version 2.26.3 (20100126.1600)
 -->
<!-- Title: G Pages: 1 -->
<svg width="1002pt" height="590pt"
 viewBox="0.00 0.00 1002.00 590.00" xmlns="http://www.w3.org/2000/svg" xmlns:xlink="http://www.w3.org/1999/xlink">
<g id="graph1" class="graph" transform="scale(1 1) rotate(0) translate(4 586)">
<title>G</title>
<polygon fill="white" stroke="white" points="-4,5 -4,-586 999,-586 999,5 -4,5"/>
<g id="graph2" class="cluster"><title>cluster_root</title>
<a xlink:title="eventq_index&#61;0&#10;full_system&#61;false&#10;sim_quantum&#61;0&#10;time_sync_enable&#61;false&#10;time_sync_period&#61;100000000000&#10;time_sync_spin_threshold&#61;100000000">
<polygon fill="#bab6ae" stroke="#bab6ae" points="20,-8 974,-8 986,-20 986,-562 974,-574 20,-574 8,-562 8,-20 20,-8"/>
<path fill="#bab6ae" stroke="#bab6ae" d="M974,-8C980,-8 986,-14 986,-20"/>
<path fill="#bab6ae" stroke="#bab6ae" d="M986,-562C986,-568 980,-574 974,-574"/>
<path fill="#bab6ae" stroke="#bab6ae" d="M20,-574C14,-574 8,-568 8,-562"/>
<path fill="#bab6ae" stroke="#bab6ae" d="M8,-20C8,-14 14,-8 20,-8"/>
<polyline fill="none" stroke="#000000" points="20,-8 974,-8 "/>
<path fill="none" stroke="#000000" d="M974,-8C980,-8 986,-14 986,-20"/>
<polyline fill="none" stroke="#000000" points="986,-20 986,-562 "/>
<path fill="none" stroke="#000000" d="M986,-562C986,-568 980,-574 974,-574"/>
<polyline fill="none" stroke="#000000" points="974,-574 20,-574 "/>
<path fill="none" stroke="#000000" d="M20,-574C14,-574 8,-568 8,-562"/>
<polyline fill="none" stroke="#000000" points="8,-562 8,-20 "/>
<path fill="none" stroke="#000000" d="M8,-20C8,-14 14,-8 20,-8"/>
<text text-anchor="middle" x="497" y="-557.4" font-family="Arial" font-size="14.00" fill="#000000">root </text>
<text text-anchor="middle" x="497" y="-541.4" font-family="Arial" font-size="14.00" fill="#000000">: Root</text>
</a>
</g>
<g id="graph3" class="cluster"><title>cluster_system</title>
<a xlink:title="boot_osflags&#61;a&#10;cache_line_size&#61;64&#10;clk_domain&#61;system.clk_domain&#10;default_p_state&#61;UNDEFINED&#10;eventq_index&#61;0&#10;exit_on_work_items&#61;false&#10;init_param&#61;0&#10;kernel&#61;&#10;kernel_addr_check&#61;true&#10;load_addr_mask&#61;1099511627775&#10;load_offset&#61;0&#10;mem_mode&#61;atomic&#10;mem_ranges&#61;0:1073741823:0:0:0:0&#10;memories&#61;system.mem_ctrls&#10;mmap_using_noreserve&#61;false&#10;multi_thread&#61;false&#10;num_work_ids&#61;16&#10;p_state_clk_gate_bins&#61;20&#10;p_state_clk_gate_max&#61;1000000000000&#10;p_state_clk_gate_min&#61;1000&#10;power_model&#61;Null&#10;readfile&#61;&#10;symbolfile&#61;&#10;thermal_components&#61;&#10;thermal_model&#61;Null&#10;work_begin_ckpt_count&#61;0&#10;work_begin_cpu_id_exit&#61;&#45;1&#10;work_begin_exit_count&#61;0&#10;work_cpus_ckpt_count&#61;0&#10;work_end_ckpt_count&#61;0&#10;work_end_exit_count&#61;0&#10;work_item_id&#61;&#45;1">
<polygon fill="#e4e7eb" stroke="#e4e7eb" points="28,-16 966,-16 978,-28 978,-514 966,-526 28,-526 16,-514 16,-28 28,-16"/>
<path fill="#e4e7eb" stroke="#e4e7eb" d="M966,-16C972,-16 978,-22 978,-28"/>
<path fill="#e4e7eb" stroke="#e4e7eb" d="M978,-514C978,-520 972,-526 966,-526"/>
<path fill="#e4e7eb" stroke="#e4e7eb" d="M28,-526C22,-526 16,-520 16,-514"/>
<path fill="#e4e7eb" stroke="#e4e7eb" d="M16,-28C16,-22 22,-16 28,-16"/>
<polyline fill="none" stroke="#000000" points="28,-16 966,-16 "/>
<path fill="none" stroke="#000000" d="M966,-16C972,-16 978,-22 978,-28"/>
<polyline fill="none" stroke="#000000" points="978,-28 978,-514 "/>
<path fill="none" stroke="#000000" d="M978,-514C978,-520 972,-526 966,-526"/>
<polyline fill="none" stroke="#000000" points="966,-526 28,-526 "/>
<path fill="none" stroke="#000000" d="M28,-526C22,-526 16,-520 16,-514"/>
<polyline fill="none" stroke="#000000" points="16,-514 16,-28 "/>
<path fill="none" stroke="#000000" d="M16,-28C16,-22 22,-16 28,-16"/>
<text text-anchor="middle" x="497" y="-509.4" font-family="Arial" font-size="14.00" fill="#000000">system </text>
<text text-anchor="middle" x="497" y="-493.4" font-family="Arial" font-size="14.00" fill="#000000">: System</text>
</a>
</g>
<g id="graph4" class="cluster"><title>cluster_system_membus</title>
<a xlink:title="clk_domain&#61;system.clk_domain&#10;default_p_state&#61;UNDEFINED&#10;eventq_index&#61;0&#10;forward_latency&#61;4&#10;frontend_latency&#61;3&#10;p_state_clk_gate_bins&#61;20&#10;p_state_clk_gate_max&#61;1000000000000&#10;p_state_clk_gate_min&#61;1000&#10;point_of_coherency&#61;true&#10;power_model&#61;Null&#10;response_latency&#61;2&#10;snoop_filter&#61;system.membus.snoop_filter&#10;snoop_response_latency&#61;4&#10;system&#61;system&#10;use_default_range&#61;false&#10;width&#61;16">
<polygon fill="#6f798c" stroke="#6f798c" points="490,-156 614,-156 626,-168 626,-238 614,-250 490,-250 478,-238 478,-168 490,-156"/>
<path fill="#6f798c" stroke="#6f798c" d="M614,-156C620,-156 626,-162 626,-168"/>
<path fill="#6f798c" stroke="#6f798c" d="M626,-238C626,-244 620,-250 614,-250"/>
<path fill="#6f798c" stroke="#6f798c" d="M490,-250C484,-250 478,-244 478,-238"/>
<path fill="#6f798c" stroke="#6f798c" d="M478,-168C478,-162 484,-156 490,-156"/>
<polyline fill="none" stroke="#000000" points="490,-156 614,-156 "/>
<path fill="none" stroke="#000000" d="M614,-156C620,-156 626,-162 626,-168"/>
<polyline fill="none" stroke="#000000" points="626,-168 626,-238 "/>
<path fill="none" stroke="#000000" d="M626,-238C626,-244 620,-250 614,-250"/>
<polyline fill="none" stroke="#000000" points="614,-250 490,-250 "/>
<path fill="none" stroke="#000000" d="M490,-250C484,-250 478,-244 478,-238"/>
<polyline fill="none" stroke="#000000" points="478,-238 478,-168 "/>
<path fill="none" stroke="#000000" d="M478,-168C478,-162 484,-156 490,-156"/>
<text text-anchor="middle" x="552" y="-233.4" font-family="Arial" font-size="14.00" fill="#000000">membus </text>
<text text-anchor="middle" x="552" y="-217.4" font-family="Arial" font-size="14.00" fill="#000000">: SystemXBar</text>
</a>
</g>
<g id="graph9" class="cluster"><title>cluster_system_mem_ctrls</title>
<a xlink:title="IDD0&#61;0.055000&#10;IDD02&#61;0.000000&#10;IDD2N&#61;0.032000&#10;IDD2N2&#61;0.000000&#10;IDD2P0&#61;0.000000&#10;IDD2P02&#61;0.000000&#10;IDD2P1&#61;0.032000&#10;IDD2P12&#61;0.000000&#10;IDD3N&#61;0.038000&#10;IDD3N2&#61;0.000000&#10;IDD3P0&#61;0.000000&#10;IDD3P02&#61;0.000000&#10;IDD3P1&#61;0.038000&#10;IDD3P12&#61;0.000000&#10;IDD4R&#61;0.157000&#10;IDD4R2&#61;0.000000&#10;IDD4W&#61;0.125000&#10;IDD4W2&#61;0.000000&#10;IDD5&#61;0.235000&#10;IDD52&#61;0.000000&#10;IDD6&#61;0.020000&#10;IDD62&#61;0.000000&#10;VDD&#61;1.500000&#10;VDD2&#61;0.000000&#10;activation_limit&#61;4&#10;addr_mapping&#61;RoRaBaCoCh&#10;bank_groups_per_rank&#61;0&#10;banks_per_rank&#61;8&#10;burst_length&#61;8&#10;channels&#61;1&#10;clk_domain&#61;system.clk_domain&#10;conf_table_reported&#61;true&#10;default_p_state&#61;UNDEFINED&#10;device_bus_width&#61;8&#10;device_rowbuffer_size&#61;1024&#10;device_size&#61;536870912&#10;devices_per_rank&#61;8&#10;dll&#61;true&#10;eventq_index&#61;0&#10;in_addr_map&#61;true&#10;kvm_map&#61;true&#10;max_accesses_per_row&#61;16&#10;mem_sched_policy&#61;frfcfs&#10;min_writes_per_switch&#61;16&#10;null&#61;false&#10;p_state_clk_gate_bins&#61;20&#10;p_state_clk_gate_max&#61;1000000000000&#10;p_state_clk_gate_min&#61;1000&#10;page_policy&#61;open_adaptive&#10;power_model&#61;Null&#10;range&#61;0:1073741823:6:19:0:0&#10;ranks_per_channel&#61;2&#10;read_buffer_size&#61;32&#10;static_backend_latency&#61;10000&#10;static_frontend_latency&#61;10000&#10;tBURST&#61;5000&#10;tCCD_L&#61;0&#10;tCK&#61;1250&#10;tCL&#61;13750&#10;tCS&#61;2500&#10;tRAS&#61;35000&#10;tRCD&#61;13750&#10;tREFI&#61;7800000&#10;tRFC&#61;260000&#10;tRP&#61;13750&#10;tRRD&#61;6000&#10;tRRD_L&#61;0&#10;tRTP&#61;7500&#10;tRTW&#61;2500&#10;tWR&#61;15000&#10;tWTR&#61;7500&#10;tXAW&#61;30000&#10;tXP&#61;6000&#10;tXPDLL&#61;0&#10;tXS&#61;270000&#10;tXSDLL&#61;0&#10;write_buffer_size&#61;64&#10;write_high_thresh_perc&#61;85&#10;write_low_thresh_perc&#61;50">
<polygon fill="#5e5958" stroke="#5e5958" points="532,-24 645,-24 657,-36 657,-106 645,-118 532,-118 520,-106 520,-36 532,-24"/>
<path fill="#5e5958" stroke="#5e5958" d="M645,-24C651,-24 657,-30 657,-36"/>
<path fill="#5e5958" stroke="#5e5958" d="M657,-106C657,-112 651,-118 645,-118"/>
<path fill="#5e5958" stroke="#5e5958" d="M532,-118C526,-118 520,-112 520,-106"/>
<path fill="#5e5958" stroke="#5e5958" d="M520,-36C520,-30 526,-24 532,-24"/>
<polyline fill="none" stroke="#000000" points="532,-24 645,-24 "/>
<path fill="none" stroke="#000000" d="M645,-24C651,-24 657,-30 657,-36"/>
<polyline fill="none" stroke="#000000" points="657,-36 657,-106 "/>
<path fill="none" stroke="#000000" d="M657,-106C657,-112 651,-118 645,-118"/>
<polyline fill="none" stroke="#000000" points="645,-118 532,-118 "/>
<path fill="none" stroke="#000000" d="M532,-118C526,-118 520,-112 520,-106"/>
<polyline fill="none" stroke="#000000" points="520,-106 520,-36 "/>
<path fill="none" stroke="#000000" d="M520,-36C520,-30 526,-24 532,-24"/>
<text text-anchor="middle" x="588.5" y="-101.4" font-family="Arial" font-size="14.00" fill="#000000">mem_ctrls </text>
<text text-anchor="middle" x="588.5" y="-85.4" font-family="Arial" font-size="14.00" fill="#000000">: DDR3_1600_x64</text>
</a>
</g>
<g id="graph12" class="cluster"><title>cluster_system_cpu</title>
<a xlink:title="branchPred&#61;Null&#10;checker&#61;Null&#10;clk_domain&#61;system.cpu_clk_domain&#10;cpu_id&#61;0&#10;default_p_state&#61;UNDEFINED&#10;do_checkpoint_insts&#61;true&#10;do_quiesce&#61;true&#10;do_statistics_insts&#61;true&#10;dtb&#61;system.cpu.dtb&#10;eventq_index&#61;0&#10;fastmem&#61;false&#10;function_trace&#61;false&#10;function_trace_start&#61;0&#10;interrupts&#61;system.cpu.interrupts&#10;isa&#61;system.cpu.isa&#10;itb&#61;system.cpu.itb&#10;max_insts_all_threads&#61;0&#10;max_insts_any_thread&#61;0&#10;max_loads_all_threads&#61;0&#10;max_loads_any_thread&#61;0&#10;numThreads&#61;1&#10;p_state_clk_gate_bins&#61;20&#10;p_state_clk_gate_max&#61;1000000000000&#10;p_state_clk_gate_min&#61;1000&#10;power_model&#61;Null&#10;profile&#61;0&#10;progress_interval&#61;0&#10;simpoint_start_insts&#61;4999000000&#10;simulate_data_stalls&#61;false&#10;simulate_inst_stalls&#61;false&#10;socket_id&#61;0&#10;switched_out&#61;false&#10;system&#61;system&#10;tracer&#61;system.cpu.tracer&#10;width&#61;1&#10;workload&#61;system.cpu.workload">
<polygon fill="#bbc6d9" stroke="#bbc6d9" points="140,-272 958,-272 970,-284 970,-466 958,-478 140,-478 128,-466 128,-284 140,-272"/>
<path fill="#bbc6d9" stroke="#bbc6d9" d="M958,-272C964,-272 970,-278 970,-284"/>
<path fill="#bbc6d9" stroke="#bbc6d9" d="M970,-466C970,-472 964,-478 958,-478"/>
<path fill="#bbc6d9" stroke="#bbc6d9" d="M140,-478C134,-478 128,-472 128,-466"/>
<path fill="#bbc6d9" stroke="#bbc6d9" d="M128,-284C128,-278 134,-272 140,-272"/>
<polyline fill="none" stroke="#000000" points="140,-272 958,-272 "/>
<path fill="none" stroke="#000000" d="M958,-272C964,-272 970,-278 970,-284"/>
<polyline fill="none" stroke="#000000" points="970,-284 970,-466 "/>
<path fill="none" stroke="#000000" d="M970,-466C970,-472 964,-478 958,-478"/>
<polyline fill="none" stroke="#000000" points="958,-478 140,-478 "/>
<path fill="none" stroke="#000000" d="M140,-478C134,-478 128,-472 128,-466"/>
<polyline fill="none" stroke="#000000" points="128,-466 128,-284 "/>
<path fill="none" stroke="#000000" d="M128,-284C128,-278 134,-272 140,-272"/>
<text text-anchor="middle" x="549" y="-461.4" font-family="Arial" font-size="14.00" fill="#000000">cpu </text>
<text text-anchor="middle" x="549" y="-445.4" font-family="Arial" font-size="14.00" fill="#000000">: AtomicSimpleCPU</text>
</a>
</g>
<g id="graph15" class="cluster"><title>cluster_system_cpu_dtb</title>
<a xlink:title="eventq_index&#61;0&#10;size&#61;64&#10;walker&#61;system.cpu.dtb.walker">
<polygon fill="#bab6ae" stroke="#bab6ae" points="532,-280 682,-280 694,-292 694,-418 682,-430 532,-430 520,-418 520,-292 532,-280"/>
<path fill="#bab6ae" stroke="#bab6ae" d="M682,-280C688,-280 694,-286 694,-292"/>
<path fill="#bab6ae" stroke="#bab6ae" d="M694,-418C694,-424 688,-430 682,-430"/>
<path fill="#bab6ae" stroke="#bab6ae" d="M532,-430C526,-430 520,-424 520,-418"/>
<path fill="#bab6ae" stroke="#bab6ae" d="M520,-292C520,-286 526,-280 532,-280"/>
<polyline fill="none" stroke="#000000" points="532,-280 682,-280 "/>
<path fill="none" stroke="#000000" d="M682,-280C688,-280 694,-286 694,-292"/>
<polyline fill="none" stroke="#000000" points="694,-292 694,-418 "/>
<path fill="none" stroke="#000000" d="M694,-418C694,-424 688,-430 682,-430"/>
<polyline fill="none" stroke="#000000" points="682,-430 532,-430 "/>
<path fill="none" stroke="#000000" d="M532,-430C526,-430 520,-424 520,-418"/>
<polyline fill="none" stroke="#000000" points="520,-418 520,-292 "/>
<path fill="none" stroke="#000000" d="M520,-292C520,-286 526,-280 532,-280"/>
<text text-anchor="middle" x="607" y="-413.4" font-family="Arial" font-size="14.00" fill="#000000">dtb </text>
<text text-anchor="middle" x="607" y="-397.4" font-family="Arial" font-size="14.00" fill="#000000">: X86TLB</text>
</a>
</g>
<g id="graph16" class="cluster"><title>cluster_system_cpu_dtb_walker</title>
<a xlink:title="clk_domain&#61;system.cpu_clk_domain&#10;default_p_state&#61;UNDEFINED&#10;eventq_index&#61;0&#10;num_squash_per_cycle&#61;4&#10;p_state_clk_gate_bins&#61;20&#10;p_state_clk_gate_max&#61;1000000000000&#10;p_state_clk_gate_min&#61;1000&#10;power_model&#61;Null&#10;system&#61;system">
<polygon fill="#9f9c95" stroke="#9f9c95" points="540,-288 674,-288 686,-300 686,-370 674,-382 540,-382 528,-370 528,-300 540,-288"/>
<path fill="#9f9c95" stroke="#9f9c95" d="M674,-288C680,-288 686,-294 686,-300"/>
<path fill="#9f9c95" stroke="#9f9c95" d="M686,-370C686,-376 680,-382 674,-382"/>
<path fill="#9f9c95" stroke="#9f9c95" d="M540,-382C534,-382 528,-376 528,-370"/>
<path fill="#9f9c95" stroke="#9f9c95" d="M528,-300C528,-294 534,-288 540,-288"/>
<polyline fill="none" stroke="#000000" points="540,-288 674,-288 "/>
<path fill="none" stroke="#000000" d="M674,-288C680,-288 686,-294 686,-300"/>
<polyline fill="none" stroke="#000000" points="686,-300 686,-370 "/>
<path fill="none" stroke="#000000" d="M686,-370C686,-376 680,-382 674,-382"/>
<polyline fill="none" stroke="#000000" points="674,-382 540,-382 "/>
<path fill="none" stroke="#000000" d="M540,-382C534,-382 528,-376 528,-370"/>
<polyline fill="none" stroke="#000000" points="528,-370 528,-300 "/>
<path fill="none" stroke="#000000" d="M528,-300C528,-294 534,-288 540,-288"/>
<text text-anchor="middle" x="607" y="-365.4" font-family="Arial" font-size="14.00" fill="#000000">walker </text>
<text text-anchor="middle" x="607" y="-349.4" font-family="Arial" font-size="14.00" fill="#000000">: X86PagetableWalker</text>
</a>
</g>
<g id="graph17" class="cluster"><title>cluster_system_cpu_interrupts</title>
<a xlink:title="clk_domain&#61;system.cpu.apic_clk_domain&#10;default_p_state&#61;UNDEFINED&#10;eventq_index&#61;0&#10;int_latency&#61;1000&#10;p_state_clk_gate_bins&#61;20&#10;p_state_clk_gate_max&#61;1000000000000&#10;p_state_clk_gate_min&#61;1000&#10;pio_addr&#61;2305843009213693952&#10;pio_latency&#61;100000&#10;power_model&#61;Null&#10;system&#61;system">
<polygon fill="#c7a793" stroke="#c7a793" points="714,-288 950,-288 962,-300 962,-370 950,-382 714,-382 702,-370 702,-300 714,-288"/>
<path fill="#c7a793" stroke="#c7a793" d="M950,-288C956,-288 962,-294 962,-300"/>
<path fill="#c7a793" stroke="#c7a793" d="M962,-370C962,-376 956,-382 950,-382"/>
<path fill="#c7a793" stroke="#c7a793" d="M714,-382C708,-382 702,-376 702,-370"/>
<path fill="#c7a793" stroke="#c7a793" d="M702,-300C702,-294 708,-288 714,-288"/>
<polyline fill="none" stroke="#000000" points="714,-288 950,-288 "/>
<path fill="none" stroke="#000000" d="M950,-288C956,-288 962,-294 962,-300"/>
<polyline fill="none" stroke="#000000" points="962,-300 962,-370 "/>
<path fill="none" stroke="#000000" d="M962,-370C962,-376 956,-382 950,-382"/>
<polyline fill="none" stroke="#000000" points="950,-382 714,-382 "/>
<path fill="none" stroke="#000000" d="M714,-382C708,-382 702,-376 702,-370"/>
<polyline fill="none" stroke="#000000" points="702,-370 702,-300 "/>
<path fill="none" stroke="#000000" d="M702,-300C702,-294 708,-288 714,-288"/>
<text text-anchor="middle" x="832" y="-365.4" font-family="Arial" font-size="14.00" fill="#000000">interrupts </text>
<text text-anchor="middle" x="832" y="-349.4" font-family="Arial" font-size="14.00" fill="#000000">: X86LocalApic</text>
</a>
</g>
<g id="graph18" class="cluster"><title>cluster_system_cpu_itb</title>
<a xlink:title="eventq_index&#61;0&#10;size&#61;64&#10;walker&#61;system.cpu.itb.walker">
<polygon fill="#bab6ae" stroke="#bab6ae" points="246,-280 396,-280 408,-292 408,-418 396,-430 246,-430 234,-418 234,-292 246,-280"/>
<path fill="#bab6ae" stroke="#bab6ae" d="M396,-280C402,-280 408,-286 408,-292"/>
<path fill="#bab6ae" stroke="#bab6ae" d="M408,-418C408,-424 402,-430 396,-430"/>
<path fill="#bab6ae" stroke="#bab6ae" d="M246,-430C240,-430 234,-424 234,-418"/>
<path fill="#bab6ae" stroke="#bab6ae" d="M234,-292C234,-286 240,-280 246,-280"/>
<polyline fill="none" stroke="#000000" points="246,-280 396,-280 "/>
<path fill="none" stroke="#000000" d="M396,-280C402,-280 408,-286 408,-292"/>
<polyline fill="none" stroke="#000000" points="408,-292 408,-418 "/>
<path fill="none" stroke="#000000" d="M408,-418C408,-424 402,-430 396,-430"/>
<polyline fill="none" stroke="#000000" points="396,-430 246,-430 "/>
<path fill="none" stroke="#000000" d="M246,-430C240,-430 234,-424 234,-418"/>
<polyline fill="none" stroke="#000000" points="234,-418 234,-292 "/>
<path fill="none" stroke="#000000" d="M234,-292C234,-286 240,-280 246,-280"/>
<text text-anchor="middle" x="321" y="-413.4" font-family="Arial" font-size="14.00" fill="#000000">itb </text>
<text text-anchor="middle" x="321" y="-397.4" font-family="Arial" font-size="14.00" fill="#000000">: X86TLB</text>
</a>
</g>
<g id="graph19" class="cluster"><title>cluster_system_cpu_itb_walker</title>
<a xlink:title="clk_domain&#61;system.cpu_clk_domain&#10;default_p_state&#61;UNDEFINED&#10;eventq_index&#61;0&#10;num_squash_per_cycle&#61;4&#10;p_state_clk_gate_bins&#61;20&#10;p_state_clk_gate_max&#61;1000000000000&#10;p_state_clk_gate_min&#61;1000&#10;power_model&#61;Null&#10;system&#61;system">
<polygon fill="#9f9c95" stroke="#9f9c95" points="254,-288 388,-288 400,-300 400,-370 388,-382 254,-382 242,-370 242,-300 254,-288"/>
<path fill="#9f9c95" stroke="#9f9c95" d="M388,-288C394,-288 400,-294 400,-300"/>
<path fill="#9f9c95" stroke="#9f9c95" d="M400,-370C400,-376 394,-382 388,-382"/>
<path fill="#9f9c95" stroke="#9f9c95" d="M254,-382C248,-382 242,-376 242,-370"/>
<path fill="#9f9c95" stroke="#9f9c95" d="M242,-300C242,-294 248,-288 254,-288"/>
<polyline fill="none" stroke="#000000" points="254,-288 388,-288 "/>
<path fill="none" stroke="#000000" d="M388,-288C394,-288 400,-294 400,-300"/>
<polyline fill="none" stroke="#000000" points="400,-300 400,-370 "/>
<path fill="none" stroke="#000000" d="M400,-370C400,-376 394,-382 388,-382"/>
<polyline fill="none" stroke="#000000" points="388,-382 254,-382 "/>
<path fill="none" stroke="#000000" d="M254,-382C248,-382 242,-376 242,-370"/>
<polyline fill="none" stroke="#000000" points="242,-370 242,-300 "/>
<path fill="none" stroke="#000000" d="M242,-300C242,-294 248,-288 254,-288"/>
<text text-anchor="middle" x="321" y="-365.4" font-family="Arial" font-size="14.00" fill="#000000">walker </text>
<text text-anchor="middle" x="321" y="-349.4" font-family="Arial" font-size="14.00" fill="#000000">: X86PagetableWalker</text>
</a>
</g>
<!-- system_system_port -->
<g id="node3" class="node"><title>system_system_port</title>
<polygon fill="#b6b8bc" stroke="#b6b8bc" points="35.5,-297 106.5,-297 118.5,-309 118.5,-321 106.5,-333 35.5,-333 23.5,-321 23.5,-309 35.5,-297"/>
<path fill="#b6b8bc" stroke="#b6b8bc" d="M106.5,-297C112.5,-297 118.5,-303 118.5,-309"/>
<path fill="#b6b8bc" stroke="#b6b8bc" d="M118.5,-321C118.5,-327 112.5,-333 106.5,-333"/>
<path fill="#b6b8bc" stroke="#b6b8bc" d="M35.5,-333C29.5,-333 23.5,-327 23.5,-321"/>
<path fill="#b6b8bc" stroke="#b6b8bc" d="M23.5,-309C23.5,-303 29.5,-297 35.5,-297"/>
<polyline fill="none" stroke="#000000" points="35.5,-297 106.5,-297 "/>
<path fill="none" stroke="#000000" d="M106.5,-297C112.5,-297 118.5,-303 118.5,-309"/>
<polyline fill="none" stroke="#000000" points="118.5,-309 118.5,-321 "/>
<path fill="none" stroke="#000000" d="M118.5,-321C118.5,-327 112.5,-333 106.5,-333"/>
<polyline fill="none" stroke="#000000" points="106.5,-333 35.5,-333 "/>
<path fill="none" stroke="#000000" d="M35.5,-333C29.5,-333 23.5,-327 23.5,-321"/>
<polyline fill="none" stroke="#000000" points="23.5,-321 23.5,-309 "/>
<path fill="none" stroke="#000000" d="M23.5,-309C23.5,-303 29.5,-297 35.5,-297"/>
<text text-anchor="middle" x="71" y="-310.4" font-family="Arial" font-size="14.00" fill="#000000">system_port</text>
</g>
<!-- system_membus_slave -->
<g id="node6" class="node"><title>system_membus_slave</title>
<polygon fill="#586070" stroke="#586070" points="498,-165 528,-165 540,-177 540,-189 528,-201 498,-201 486,-189 486,-177 498,-165"/>
<path fill="#586070" stroke="#586070" d="M528,-165C534,-165 540,-171 540,-177"/>
<path fill="#586070" stroke="#586070" d="M540,-189C540,-195 534,-201 528,-201"/>
<path fill="#586070" stroke="#586070" d="M498,-201C492,-201 486,-195 486,-189"/>
<path fill="#586070" stroke="#586070" d="M486,-177C486,-171 492,-165 498,-165"/>
<polyline fill="none" stroke="#000000" points="498,-165 528,-165 "/>
<path fill="none" stroke="#000000" d="M528,-165C534,-165 540,-171 540,-177"/>
<polyline fill="none" stroke="#000000" points="540,-177 540,-189 "/>
<path fill="none" stroke="#000000" d="M540,-189C540,-195 534,-201 528,-201"/>
<polyline fill="none" stroke="#000000" points="528,-201 498,-201 "/>
<path fill="none" stroke="#000000" d="M498,-201C492,-201 486,-195 486,-189"/>
<polyline fill="none" stroke="#000000" points="486,-189 486,-177 "/>
<path fill="none" stroke="#000000" d="M486,-177C486,-171 492,-165 498,-165"/>
<text text-anchor="middle" x="513" y="-178.4" font-family="Arial" font-size="14.00" fill="#000000">slave</text>
</g>
<!-- system_system_port&#45;&gt;system_membus_slave -->
<g id="edge22" class="edge"><title>system_system_port&#45;&gt;system_membus_slave</title>
<path fill="none" stroke="black" d="M89.1581,-296.759C98.7727,-288.064 111.217,-278.226 124,-272 243.967,-213.566 403.62,-192.68 475.328,-185.92"/>
<polygon fill="black" stroke="black" points="476.014,-189.372 485.658,-184.987 475.384,-182.401 476.014,-189.372"/>
</g>
<!-- system_membus_master -->
<g id="node5" class="node"><title>system_membus_master</title>
<polygon fill="#586070" stroke="#586070" points="570,-165 606,-165 618,-177 618,-189 606,-201 570,-201 558,-189 558,-177 570,-165"/>
<path fill="#586070" stroke="#586070" d="M606,-165C612,-165 618,-171 618,-177"/>
<path fill="#586070" stroke="#586070" d="M618,-189C618,-195 612,-201 606,-201"/>
<path fill="#586070" stroke="#586070" d="M570,-201C564,-201 558,-195 558,-189"/>
<path fill="#586070" stroke="#586070" d="M558,-177C558,-171 564,-165 570,-165"/>
<polyline fill="none" stroke="#000000" points="570,-165 606,-165 "/>
<path fill="none" stroke="#000000" d="M606,-165C612,-165 618,-171 618,-177"/>
<polyline fill="none" stroke="#000000" points="618,-177 618,-189 "/>
<path fill="none" stroke="#000000" d="M618,-189C618,-195 612,-201 606,-201"/>
<polyline fill="none" stroke="#000000" points="606,-201 570,-201 "/>
<path fill="none" stroke="#000000" d="M570,-201C564,-201 558,-195 558,-189"/>
<polyline fill="none" stroke="#000000" points="558,-189 558,-177 "/>
<path fill="none" stroke="#000000" d="M558,-177C558,-171 564,-165 570,-165"/>
<text text-anchor="middle" x="588" y="-178.4" font-family="Arial" font-size="14.00" fill="#000000">master</text>
</g>
<!-- system_mem_ctrls_port -->
<g id="node12" class="node"><title>system_mem_ctrls_port</title>
<polygon fill="#4b4746" stroke="#4b4746" points="573,-33 603,-33 615,-45 615,-57 603,-69 573,-69 561,-57 561,-45 573,-33"/>
<path fill="#4b4746" stroke="#4b4746" d="M603,-33C609,-33 615,-39 615,-45"/>
<path fill="#4b4746" stroke="#4b4746" d="M615,-57C615,-63 609,-69 603,-69"/>
<path fill="#4b4746" stroke="#4b4746" d="M573,-69C567,-69 561,-63 561,-57"/>
<path fill="#4b4746" stroke="#4b4746" d="M561,-45C561,-39 567,-33 573,-33"/>
<polyline fill="none" stroke="#000000" points="573,-33 603,-33 "/>
<path fill="none" stroke="#000000" d="M603,-33C609,-33 615,-39 615,-45"/>
<polyline fill="none" stroke="#000000" points="615,-45 615,-57 "/>
<path fill="none" stroke="#000000" d="M615,-57C615,-63 609,-69 603,-69"/>
<polyline fill="none" stroke="#000000" points="603,-69 573,-69 "/>
<path fill="none" stroke="#000000" d="M573,-69C567,-69 561,-63 561,-57"/>
<polyline fill="none" stroke="#000000" points="561,-57 561,-45 "/>
<path fill="none" stroke="#000000" d="M561,-45C561,-39 567,-33 573,-33"/>
<text text-anchor="middle" x="588" y="-46.4" font-family="Arial" font-size="14.00" fill="#000000">port</text>
</g>
<!-- system_membus_master&#45;&gt;system_mem_ctrls_port -->
<g id="edge28" class="edge"><title>system_membus_master&#45;&gt;system_mem_ctrls_port</title>
<path fill="none" stroke="black" d="M588,-164.923C588,-142.928 588,-105.528 588,-79.6093"/>
<polygon fill="black" stroke="black" points="591.5,-79.2825 588,-69.2825 584.5,-79.2826 591.5,-79.2825"/>
</g>
<!-- system_cpu_interrupts_int_slave -->
<g id="node24" class="node"><title>system_cpu_interrupts_int_slave</title>
<polygon fill="#9f8575" stroke="#9f8575" points="822,-297 870,-297 882,-309 882,-321 870,-333 822,-333 810,-321 810,-309 822,-297"/>
<path fill="#9f8575" stroke="#9f8575" d="M870,-297C876,-297 882,-303 882,-309"/>
<path fill="#9f8575" stroke="#9f8575" d="M882,-321C882,-327 876,-333 870,-333"/>
<path fill="#9f8575" stroke="#9f8575" d="M822,-333C816,-333 810,-327 810,-321"/>
<path fill="#9f8575" stroke="#9f8575" d="M810,-309C810,-303 816,-297 822,-297"/>
<polyline fill="none" stroke="#000000" points="822,-297 870,-297 "/>
<path fill="none" stroke="#000000" d="M870,-297C876,-297 882,-303 882,-309"/>
<polyline fill="none" stroke="#000000" points="882,-309 882,-321 "/>
<path fill="none" stroke="#000000" d="M882,-321C882,-327 876,-333 870,-333"/>
<polyline fill="none" stroke="#000000" points="870,-333 822,-333 "/>
<path fill="none" stroke="#000000" d="M822,-333C816,-333 810,-327 810,-321"/>
<polyline fill="none" stroke="#000000" points="810,-321 810,-309 "/>
<path fill="none" stroke="#000000" d="M810,-309C810,-303 816,-297 822,-297"/>
<text text-anchor="middle" x="846" y="-310.4" font-family="Arial" font-size="14.00" fill="#000000">int_slave</text>
</g>
<!-- system_membus_master&#45;&gt;system_cpu_interrupts_int_slave -->
<g id="edge26" class="edge"><title>system_membus_master&#45;&gt;system_cpu_interrupts_int_slave</title>
<path fill="none" stroke="black" d="M618.283,-191.765C661.195,-205.021 741.131,-232.841 801,-272 808.54,-276.932 815.942,-283.212 822.495,-289.439"/>
<polygon fill="black" stroke="black" points="820.192,-292.085 829.757,-296.641 825.122,-287.114 820.192,-292.085"/>
</g>
<!-- system_cpu_interrupts_pio -->
<g id="node26" class="node"><title>system_cpu_interrupts_pio</title>
<polygon fill="#9f8575" stroke="#9f8575" points="912,-297 942,-297 954,-309 954,-321 942,-333 912,-333 900,-321 900,-309 912,-297"/>
<path fill="#9f8575" stroke="#9f8575" d="M942,-297C948,-297 954,-303 954,-309"/>
<path fill="#9f8575" stroke="#9f8575" d="M954,-321C954,-327 948,-333 942,-333"/>
<path fill="#9f8575" stroke="#9f8575" d="M912,-333C906,-333 900,-327 900,-321"/>
<path fill="#9f8575" stroke="#9f8575" d="M900,-309C900,-303 906,-297 912,-297"/>
<polyline fill="none" stroke="#000000" points="912,-297 942,-297 "/>
<path fill="none" stroke="#000000" d="M942,-297C948,-297 954,-303 954,-309"/>
<polyline fill="none" stroke="#000000" points="954,-309 954,-321 "/>
<path fill="none" stroke="#000000" d="M954,-321C954,-327 948,-333 942,-333"/>
<polyline fill="none" stroke="#000000" points="942,-333 912,-333 "/>
<path fill="none" stroke="#000000" d="M912,-333C906,-333 900,-327 900,-321"/>
<polyline fill="none" stroke="#000000" points="900,-321 900,-309 "/>
<path fill="none" stroke="#000000" d="M900,-309C900,-303 906,-297 912,-297"/>
<text text-anchor="middle" x="927" y="-310.4" font-family="Arial" font-size="14.00" fill="#000000">pio</text>
</g>
<!-- system_membus_master&#45;&gt;system_cpu_interrupts_pio -->
<g id="edge24" class="edge"><title>system_membus_master&#45;&gt;system_cpu_interrupts_pio</title>
<path fill="none" stroke="black" d="M618.382,-186.04C675.87,-192.994 802.704,-214.184 891,-272 897.873,-276.5 904.126,-282.705 909.421,-289.002"/>
<polygon fill="black" stroke="black" points="906.678,-291.177 915.591,-296.906 912.196,-286.869 906.678,-291.177"/>
</g>
<!-- system_cpu_icache_port -->
<g id="node16" class="node"><title>system_cpu_icache_port</title>
<polygon fill="#959ead" stroke="#959ead" points="147.5,-297 214.5,-297 226.5,-309 226.5,-321 214.5,-333 147.5,-333 135.5,-321 135.5,-309 147.5,-297"/>
<path fill="#959ead" stroke="#959ead" d="M214.5,-297C220.5,-297 226.5,-303 226.5,-309"/>
<path fill="#959ead" stroke="#959ead" d="M226.5,-321C226.5,-327 220.5,-333 214.5,-333"/>
<path fill="#959ead" stroke="#959ead" d="M147.5,-333C141.5,-333 135.5,-327 135.5,-321"/>
<path fill="#959ead" stroke="#959ead" d="M135.5,-309C135.5,-303 141.5,-297 147.5,-297"/>
<polyline fill="none" stroke="#000000" points="147.5,-297 214.5,-297 "/>
<path fill="none" stroke="#000000" d="M214.5,-297C220.5,-297 226.5,-303 226.5,-309"/>
<polyline fill="none" stroke="#000000" points="226.5,-309 226.5,-321 "/>
<path fill="none" stroke="#000000" d="M226.5,-321C226.5,-327 220.5,-333 214.5,-333"/>
<polyline fill="none" stroke="#000000" points="214.5,-333 147.5,-333 "/>
<path fill="none" stroke="#000000" d="M147.5,-333C141.5,-333 135.5,-327 135.5,-321"/>
<polyline fill="none" stroke="#000000" points="135.5,-321 135.5,-309 "/>
<path fill="none" stroke="#000000" d="M135.5,-309C135.5,-303 141.5,-297 147.5,-297"/>
<text text-anchor="middle" x="181" y="-310.4" font-family="Arial" font-size="14.00" fill="#000000">icache_port</text>
</g>
<!-- system_cpu_icache_port&#45;&gt;system_membus_slave -->
<g id="edge30" class="edge"><title>system_cpu_icache_port&#45;&gt;system_membus_slave</title>
<path fill="none" stroke="black" d="M201.521,-296.87C211.899,-288.413 225.023,-278.75 238,-272 280.258,-250.019 411.073,-211.695 475.863,-193.355"/>
<polygon fill="black" stroke="black" points="476.996,-196.672 485.67,-190.589 475.096,-189.935 476.996,-196.672"/>
</g>
<!-- system_cpu_dcache_port -->
<g id="node17" class="node"><title>system_cpu_dcache_port</title>
<polygon fill="#959ead" stroke="#959ead" points="428,-297 500,-297 512,-309 512,-321 500,-333 428,-333 416,-321 416,-309 428,-297"/>
<path fill="#959ead" stroke="#959ead" d="M500,-297C506,-297 512,-303 512,-309"/>
<path fill="#959ead" stroke="#959ead" d="M512,-321C512,-327 506,-333 500,-333"/>
<path fill="#959ead" stroke="#959ead" d="M428,-333C422,-333 416,-327 416,-321"/>
<path fill="#959ead" stroke="#959ead" d="M416,-309C416,-303 422,-297 428,-297"/>
<polyline fill="none" stroke="#000000" points="428,-297 500,-297 "/>
<path fill="none" stroke="#000000" d="M500,-297C506,-297 512,-303 512,-309"/>
<polyline fill="none" stroke="#000000" points="512,-309 512,-321 "/>
<path fill="none" stroke="#000000" d="M512,-321C512,-327 506,-333 500,-333"/>
<polyline fill="none" stroke="#000000" points="500,-333 428,-333 "/>
<path fill="none" stroke="#000000" d="M428,-333C422,-333 416,-327 416,-321"/>
<polyline fill="none" stroke="#000000" points="416,-321 416,-309 "/>
<path fill="none" stroke="#000000" d="M416,-309C416,-303 422,-297 428,-297"/>
<text text-anchor="middle" x="464" y="-310.4" font-family="Arial" font-size="14.00" fill="#000000">dcache_port</text>
</g>
<!-- system_cpu_dcache_port&#45;&gt;system_membus_slave -->
<g id="edge32" class="edge"><title>system_cpu_dcache_port&#45;&gt;system_membus_slave</title>
<path fill="none" stroke="black" d="M470.71,-296.923C478.948,-274.732 493.007,-236.859 502.637,-210.918"/>
<polygon fill="black" stroke="black" points="506.014,-211.875 506.213,-201.283 499.452,-209.439 506.014,-211.875"/>
</g>
<!-- system_cpu_dtb_walker_port -->
<g id="node22" class="node"><title>system_cpu_dtb_walker_port</title>
<polygon fill="#7f7c77" stroke="#7f7c77" points="548,-297 578,-297 590,-309 590,-321 578,-333 548,-333 536,-321 536,-309 548,-297"/>
<path fill="#7f7c77" stroke="#7f7c77" d="M578,-297C584,-297 590,-303 590,-309"/>
<path fill="#7f7c77" stroke="#7f7c77" d="M590,-321C590,-327 584,-333 578,-333"/>
<path fill="#7f7c77" stroke="#7f7c77" d="M548,-333C542,-333 536,-327 536,-321"/>
<path fill="#7f7c77" stroke="#7f7c77" d="M536,-309C536,-303 542,-297 548,-297"/>
<polyline fill="none" stroke="#000000" points="548,-297 578,-297 "/>
<path fill="none" stroke="#000000" d="M578,-297C584,-297 590,-303 590,-309"/>
<polyline fill="none" stroke="#000000" points="590,-309 590,-321 "/>
<path fill="none" stroke="#000000" d="M590,-321C590,-327 584,-333 578,-333"/>
<polyline fill="none" stroke="#000000" points="578,-333 548,-333 "/>
<path fill="none" stroke="#000000" d="M548,-333C542,-333 536,-327 536,-321"/>
<polyline fill="none" stroke="#000000" points="536,-321 536,-309 "/>
<path fill="none" stroke="#000000" d="M536,-309C536,-303 542,-297 548,-297"/>
<text text-anchor="middle" x="563" y="-310.4" font-family="Arial" font-size="14.00" fill="#000000">port</text>
</g>
<!-- system_cpu_dtb_walker_port&#45;&gt;system_membus_slave -->
<g id="edge34" class="edge"><title>system_cpu_dtb_walker_port&#45;&gt;system_membus_slave</title>
<path fill="none" stroke="black" d="M556.153,-296.923C547.747,-274.732 533.401,-236.859 523.575,-210.918"/>
<polygon fill="black" stroke="black" points="526.741,-209.394 519.925,-201.283 520.194,-211.874 526.741,-209.394"/>
</g>
<!-- system_cpu_interrupts_int_master -->
<g id="node25" class="node"><title>system_cpu_interrupts_int_master</title>
<polygon fill="#9f8575" stroke="#9f8575" points="721.5,-297 780.5,-297 792.5,-309 792.5,-321 780.5,-333 721.5,-333 709.5,-321 709.5,-309 721.5,-297"/>
<path fill="#9f8575" stroke="#9f8575" d="M780.5,-297C786.5,-297 792.5,-303 792.5,-309"/>
<path fill="#9f8575" stroke="#9f8575" d="M792.5,-321C792.5,-327 786.5,-333 780.5,-333"/>
<path fill="#9f8575" stroke="#9f8575" d="M721.5,-333C715.5,-333 709.5,-327 709.5,-321"/>
<path fill="#9f8575" stroke="#9f8575" d="M709.5,-309C709.5,-303 715.5,-297 721.5,-297"/>
<polyline fill="none" stroke="#000000" points="721.5,-297 780.5,-297 "/>
<path fill="none" stroke="#000000" d="M780.5,-297C786.5,-297 792.5,-303 792.5,-309"/>
<polyline fill="none" stroke="#000000" points="792.5,-309 792.5,-321 "/>
<path fill="none" stroke="#000000" d="M792.5,-321C792.5,-327 786.5,-333 780.5,-333"/>
<polyline fill="none" stroke="#000000" points="780.5,-333 721.5,-333 "/>
<path fill="none" stroke="#000000" d="M721.5,-333C715.5,-333 709.5,-327 709.5,-321"/>
<polyline fill="none" stroke="#000000" points="709.5,-321 709.5,-309 "/>
<path fill="none" stroke="#000000" d="M709.5,-309C709.5,-303 715.5,-297 721.5,-297"/>
<text text-anchor="middle" x="751" y="-310.4" font-family="Arial" font-size="14.00" fill="#000000">int_master</text>
</g>
<!-- system_cpu_interrupts_int_master&#45;&gt;system_membus_slave -->
<g id="edge36" class="edge"><title>system_cpu_interrupts_int_master&#45;&gt;system_membus_slave</title>
<path fill="none" stroke="black" d="M730.402,-296.862C719.195,-287.972 704.654,-277.928 690,-272 631.204,-248.215 600.758,-286.659 549,-250 535.733,-240.603 526.901,-224.749 521.306,-210.821"/>
<polygon fill="black" stroke="black" points="524.493,-209.342 517.787,-201.139 517.914,-211.733 524.493,-209.342"/>
</g>
<!-- system_cpu_itb_walker_port -->
<g id="node29" class="node"><title>system_cpu_itb_walker_port</title>
<polygon fill="#7f7c77" stroke="#7f7c77" points="350,-297 380,-297 392,-309 392,-321 380,-333 350,-333 338,-321 338,-309 350,-297"/>
<path fill="#7f7c77" stroke="#7f7c77" d="M380,-297C386,-297 392,-303 392,-309"/>
<path fill="#7f7c77" stroke="#7f7c77" d="M392,-321C392,-327 386,-333 380,-333"/>
<path fill="#7f7c77" stroke="#7f7c77" d="M350,-333C344,-333 338,-327 338,-321"/>
<path fill="#7f7c77" stroke="#7f7c77" d="M338,-309C338,-303 344,-297 350,-297"/>
<polyline fill="none" stroke="#000000" points="350,-297 380,-297 "/>
<path fill="none" stroke="#000000" d="M380,-297C386,-297 392,-303 392,-309"/>
<polyline fill="none" stroke="#000000" points="392,-309 392,-321 "/>
<path fill="none" stroke="#000000" d="M392,-321C392,-327 386,-333 380,-333"/>
<polyline fill="none" stroke="#000000" points="380,-333 350,-333 "/>
<path fill="none" stroke="#000000" d="M350,-333C344,-333 338,-327 338,-321"/>
<polyline fill="none" stroke="#000000" points="338,-321 338,-309 "/>
<path fill="none" stroke="#000000" d="M338,-309C338,-303 344,-297 350,-297"/>
<text text-anchor="middle" x="365" y="-310.4" font-family="Arial" font-size="14.00" fill="#000000">port</text>
</g>
<!-- system_cpu_itb_walker_port&#45;&gt;system_membus_slave -->
<g id="edge38" class="edge"><title>system_cpu_itb_walker_port&#45;&gt;system_membus_slave</title>
<path fill="none" stroke="black" d="M376.274,-296.922C381.729,-288.862 388.677,-279.513 396,-272 420.591,-246.77 452.682,-222.87 477.035,-206.203"/>
<polygon fill="black" stroke="black" points="479.299,-208.897 485.628,-200.4 475.382,-203.096 479.299,-208.897"/>
</g>
</g>
</svg>
